ISO-10303-21;
HEADER;
FILE_DESCRIPTION(('FreeCAD Model'),'2;1');
FILE_NAME('Open CASCADE Shape Model','2026-10-01T17:41:03',('FreeCAD'),(
    'FreeCAD'),'Open CASCADE STEP processor 7.8','FreeCAD','Unknown');
FILE_SCHEMA(('AUTOMOTIVE_DESIGN { 1 0 10303 214 1 1 1 1 }'));
ENDSEC;
DATA;
#1 = APPLICATION_PROTOCOL_DEFINITION('international standard',
  'automotive_design',2000,#2);
#2 = APPLICATION_CONTEXT(
  'core data for automotive mechanical design processes');
#3 = SHAPE_DEFINITION_REPRESENTATION(#4,#10);
#4 = PRODUCT_DEFINITION_SHAPE('','',#5);
#5 = PRODUCT_DEFINITION('design','',#6,#9);
#6 = PRODUCT_DEFINITION_FORMATION('','',#7);
#7 = PRODUCT('Open CASCADE STEP translator 7.8 8',
  'Open CASCADE STEP translator 7.8 8','',(#8));
#8 = PRODUCT_CONTEXT('',#2,'mechanical');
#9 = PRODUCT_DEFINITION_CONTEXT('part definition',#2,'design');
#10 = ADVANCED_BREP_SHAPE_REPRESENTATION('',(#11,#15),#371);
#11 = AXIS2_PLACEMENT_3D('',#12,#13,#14);
#12 = CARTESIAN_POINT('',(0.,0.,0.));
#13 = DIRECTION('',(0.,0.,1.));
#14 = DIRECTION('',(1.,0.,-0.));
#15 = MANIFOLD_SOLID_BREP('',#16);
#16 = CLOSED_SHELL('',(#17,#50,#59,#79,#213,#349,#360));
#17 = ADVANCED_FACE('',(#18),#45,.T.);
#18 = FACE_BOUND('',#19,.T.);
#19 = EDGE_LOOP('',(#20,#29,#37,#44));
#20 = ORIENTED_EDGE('',*,*,#21,.F.);
#21 = EDGE_CURVE('',#22,#22,#24,.T.);
#22 = VERTEX_POINT('',#23);
#23 = CARTESIAN_POINT('',(1.95,-4.776122516675E-16,38.));
#24 = CIRCLE('',#25,1.95);
#25 = AXIS2_PLACEMENT_3D('',#26,#27,#28);
#26 = CARTESIAN_POINT('',(0.,0.,38.));
#27 = DIRECTION('',(0.,0.,1.));
#28 = DIRECTION('',(1.,0.,-0.));
#29 = ORIENTED_EDGE('',*,*,#30,.F.);
#30 = EDGE_CURVE('',#31,#22,#33,.T.);
#31 = VERTEX_POINT('',#32);
#32 = CARTESIAN_POINT('',(1.95,-4.776122516675E-16,0.));
#33 = LINE('',#34,#35);
#34 = CARTESIAN_POINT('',(1.95,-4.776122516675E-16,0.));
#35 = VECTOR('',#36,1.);
#36 = DIRECTION('',(0.,0.,1.));
#37 = ORIENTED_EDGE('',*,*,#38,.T.);
#38 = EDGE_CURVE('',#31,#31,#39,.T.);
#39 = CIRCLE('',#40,1.95);
#40 = AXIS2_PLACEMENT_3D('',#41,#42,#43);
#41 = CARTESIAN_POINT('',(0.,0.,0.));
#42 = DIRECTION('',(0.,0.,1.));
#43 = DIRECTION('',(1.,0.,-0.));
#44 = ORIENTED_EDGE('',*,*,#30,.T.);
#45 = CYLINDRICAL_SURFACE('',#46,1.95);
#46 = AXIS2_PLACEMENT_3D('',#47,#48,#49);
#47 = CARTESIAN_POINT('',(0.,0.,0.));
#48 = DIRECTION('',(0.,0.,1.));
#49 = DIRECTION('',(1.,0.,-0.));
#50 = ADVANCED_FACE('',(#51),#54,.T.);
#51 = FACE_BOUND('',#52,.T.);
#52 = EDGE_LOOP('',(#53));
#53 = ORIENTED_EDGE('',*,*,#21,.T.);
#54 = PLANE('',#55);
#55 = AXIS2_PLACEMENT_3D('',#56,#57,#58);
#56 = CARTESIAN_POINT('',(0.,0.,38.));
#57 = DIRECTION('',(0.,0.,1.));
#58 = DIRECTION('',(1.,0.,-0.));
#59 = ADVANCED_FACE('',(#60,#71),#74,.T.);
#60 = FACE_BOUND('',#61,.T.);
#61 = EDGE_LOOP('',(#62));
#62 = ORIENTED_EDGE('',*,*,#63,.T.);
#63 = EDGE_CURVE('',#64,#64,#66,.T.);
#64 = VERTEX_POINT('',#65);
#65 = CARTESIAN_POINT('',(4.,-9.797174393179E-16,0.));
#66 = CIRCLE('',#67,4.);
#67 = AXIS2_PLACEMENT_3D('',#68,#69,#70);
#68 = CARTESIAN_POINT('',(0.,0.,0.));
#69 = DIRECTION('',(0.,0.,1.));
#70 = DIRECTION('',(1.,0.,-0.));
#71 = FACE_BOUND('',#72,.T.);
#72 = EDGE_LOOP('',(#73));
#73 = ORIENTED_EDGE('',*,*,#38,.F.);
#74 = PLANE('',#75);
#75 = AXIS2_PLACEMENT_3D('',#76,#77,#78);
#76 = CARTESIAN_POINT('',(0.,0.,0.));
#77 = DIRECTION('',(0.,0.,1.));
#78 = DIRECTION('',(1.,0.,-0.));
#79 = ADVANCED_FACE('',(#80),#208,.T.);
#80 = FACE_BOUND('',#81,.T.);
#81 = EDGE_LOOP('',(#82,#90,#91,#92,#117,#126,#151,#176,#185));
#82 = ORIENTED_EDGE('',*,*,#83,.T.);
#83 = EDGE_CURVE('',#84,#64,#86,.T.);
#84 = VERTEX_POINT('',#85);
#85 = CARTESIAN_POINT('',(4.,-7.347880794884E-16,-3.071796769725));
#86 = LINE('',#87,#88);
#87 = CARTESIAN_POINT('',(4.,-9.797174393179E-16,-5.));
#88 = VECTOR('',#89,1.);
#89 = DIRECTION('',(0.,0.,1.));
#90 = ORIENTED_EDGE('',*,*,#63,.F.);
#91 = ORIENTED_EDGE('',*,*,#83,.F.);
#92 = ORIENTED_EDGE('',*,*,#93,.T.);
#93 = EDGE_CURVE('',#84,#94,#96,.T.);
#94 = VERTEX_POINT('',#95);
#95 = CARTESIAN_POINT('',(3.465103814382,1.998263134714,-5.));
#96 = B_SPLINE_CURVE_WITH_KNOTS('',7,(#97,#98,#99,#100,#101,#102,#103,
    #104,#105,#106,#107,#108,#109,#110,#111,#112,#113,#114,#115,#116),
  .UNSPECIFIED.,.F.,.F.,(8,6,6,8),(0.,0.299213323662,0.509438769415,1.),
  .UNSPECIFIED.);
#97 = CARTESIAN_POINT('',(4.,0.,-3.071796769724));
#98 = CARTESIAN_POINT('',(4.,0.15494891201,-3.071796769724));
#99 = CARTESIAN_POINT('',(3.992997344416,0.310001901719,-3.083925929123)
  );
#100 = CARTESIAN_POINT('',(3.978974947134,0.462554543631,-3.108212246037
    ));
#101 = CARTESIAN_POINT('',(3.958545561635,0.610441156735,-3.144135895953
    ));
#102 = CARTESIAN_POINT('',(3.932750476991,0.751888547057,-3.190951104243
    ));
#103 = CARTESIAN_POINT('',(3.902884576559,0.885507106409,-3.247699463159
    ));
#104 = CARTESIAN_POINT('',(3.847428013705,1.09795596584,-3.359276657356)
  );
#105 = CARTESIAN_POINT('',(3.823189036064,1.181332763727,-3.409694104185
    ));
#106 = CARTESIAN_POINT('',(3.798045169191,1.260131672254,-3.464139991219
    ));
#107 = CARTESIAN_POINT('',(3.772448572667,1.334173429723,-3.522263618728
    ));
#108 = CARTESIAN_POINT('',(3.746827059523,1.403364702823,-3.583719954105
    ));
#109 = CARTESIAN_POINT('',(3.721565701839,1.467681764565,-3.648177699542
    ));
#110 = CARTESIAN_POINT('',(3.639666626768,1.665945892501,-3.872011691579
    ));
#111 = CARTESIAN_POINT('',(3.586163156026,1.77824522427,-4.043196311124)
  );
#112 = CARTESIAN_POINT('',(3.540638831628,1.864700299786,-4.225012556157
    ));
#113 = CARTESIAN_POINT('',(3.505796057094,1.927279515617,-4.414082853065
    ));
#114 = CARTESIAN_POINT('',(3.482189310107,1.968601027082,-4.60757355917)
  );
#115 = CARTESIAN_POINT('',(3.469045402111,1.991428193785,-4.803323443302
    ));
#116 = CARTESIAN_POINT('',(3.465103802357,1.998263155565,-5.0000006));
#117 = ORIENTED_EDGE('',*,*,#118,.T.);
#118 = EDGE_CURVE('',#94,#119,#121,.T.);
#119 = VERTEX_POINT('',#120);
#120 = CARTESIAN_POINT('',(-3.465103814382,1.998263134714,-5.));
#121 = CIRCLE('',#122,4.);
#122 = AXIS2_PLACEMENT_3D('',#123,#124,#125);
#123 = CARTESIAN_POINT('',(0.,0.,-5.));
#124 = DIRECTION('',(0.,0.,1.));
#125 = DIRECTION('',(1.,0.,-0.));
#126 = ORIENTED_EDGE('',*,*,#127,.F.);
#127 = EDGE_CURVE('',#128,#119,#130,.T.);
#128 = VERTEX_POINT('',#129);
#129 = CARTESIAN_POINT('',(-4.,-4.898587196589E-16,-3.071796769724));
#130 = B_SPLINE_CURVE_WITH_KNOTS('',7,(#131,#132,#133,#134,#135,#136,
    #137,#138,#139,#140,#141,#142,#143,#144,#145,#146,#147,#148,#149,
    #150),.UNSPECIFIED.,.F.,.F.,(8,6,6,8),(0.,0.299212889432,
    0.509438290013,1.),.UNSPECIFIED.);
#131 = CARTESIAN_POINT('',(-4.,0.,-3.071796769724));
#132 = CARTESIAN_POINT('',(-4.,0.154948687085,-3.071796769724));
#133 = CARTESIAN_POINT('',(-3.992997364747,0.310001451352,
    -3.083925893908));
#134 = CARTESIAN_POINT('',(-3.978975008234,0.462553879143,-3.10821214022
    ));
#135 = CARTESIAN_POINT('',(-3.958545680262,0.610440298209,
    -3.144135687346));
#136 = CARTESIAN_POINT('',(-3.932750664125,0.75188752089,-3.190950764606
    ));
#137 = CARTESIAN_POINT('',(-3.90288483657,0.88550594298,-3.247698969136)
  );
#138 = CARTESIAN_POINT('',(-3.847428366511,1.097954731852,
    -3.359275927065));
#139 = CARTESIAN_POINT('',(-3.823189406462,1.181331569129,
    -3.409693311566));
#140 = CARTESIAN_POINT('',(-3.798045552793,1.260130521144,
    -3.464139138272));
#141 = CARTESIAN_POINT('',(-3.77244896495,1.334172325512,-3.522262707631
    ));
#142 = CARTESIAN_POINT('',(-3.746827455988,1.403363648292,
    -3.583718987155));
#143 = CARTESIAN_POINT('',(-3.721566098141,1.467680761914,
    -3.648176679115));
#144 = CARTESIAN_POINT('',(-3.639666940553,1.665945233851,
    -3.872010687723));
#145 = CARTESIAN_POINT('',(-3.586163378604,1.778244801521,
    -4.043195422252));
#146 = CARTESIAN_POINT('',(-3.540638967949,1.864700055019,
    -4.225011816581));
#147 = CARTESIAN_POINT('',(-3.505796126266,1.927279394501,
    -4.414082285578));
#148 = CARTESIAN_POINT('',(-3.482189335767,1.968600982529,
    -4.607573176762));
#149 = CARTESIAN_POINT('',(-3.469045405956,1.991428187118,
    -4.803323251443));
#150 = CARTESIAN_POINT('',(-3.465103802357,1.998263155565,-5.0000006));
#151 = ORIENTED_EDGE('',*,*,#152,.T.);
#152 = EDGE_CURVE('',#128,#153,#155,.T.);
#153 = VERTEX_POINT('',#154);
#154 = CARTESIAN_POINT('',(-3.465103814382,-1.998263134714,-5.));
#155 = B_SPLINE_CURVE_WITH_KNOTS('',7,(#156,#157,#158,#159,#160,#161,
    #162,#163,#164,#165,#166,#167,#168,#169,#170,#171,#172,#173,#174,
    #175),.UNSPECIFIED.,.F.,.F.,(8,6,6,8),(0.,0.299212889433,
    0.509438290013,1.),.UNSPECIFIED.);
#156 = CARTESIAN_POINT('',(-4.,0.,-3.071796769724));
#157 = CARTESIAN_POINT('',(-4.,-0.154948687085,-3.071796769724));
#158 = CARTESIAN_POINT('',(-3.992997364747,-0.310001451352,
    -3.083925893908));
#159 = CARTESIAN_POINT('',(-3.978975008234,-0.462553879144,
    -3.10821214022));
#160 = CARTESIAN_POINT('',(-3.958545680262,-0.610440298208,
    -3.144135687346));
#161 = CARTESIAN_POINT('',(-3.932750664125,-0.751887520891,
    -3.190950764607));
#162 = CARTESIAN_POINT('',(-3.90288483657,-0.88550594298,-3.247698969136
    ));
#163 = CARTESIAN_POINT('',(-3.847428366511,-1.097954731852,
    -3.359275927065));
#164 = CARTESIAN_POINT('',(-3.823189406462,-1.181331569129,
    -3.409693311566));
#165 = CARTESIAN_POINT('',(-3.798045552793,-1.260130521144,
    -3.464139138272));
#166 = CARTESIAN_POINT('',(-3.77244896495,-1.334172325512,
    -3.522262707631));
#167 = CARTESIAN_POINT('',(-3.746827455988,-1.403363648292,
    -3.583718987155));
#168 = CARTESIAN_POINT('',(-3.721566098141,-1.467680761914,
    -3.648176679115));
#169 = CARTESIAN_POINT('',(-3.639666940553,-1.66594523385,
    -3.872010687722));
#170 = CARTESIAN_POINT('',(-3.586163378603,-1.778244801522,
    -4.043195422253));
#171 = CARTESIAN_POINT('',(-3.54063896795,-1.864700055017,
    -4.225011816579));
#172 = CARTESIAN_POINT('',(-3.505796126266,-1.927279394502,
    -4.414082285579));
#173 = CARTESIAN_POINT('',(-3.482189335767,-1.968600982528,
    -4.607573176761));
#174 = CARTESIAN_POINT('',(-3.469045405956,-1.991428187118,
    -4.803323251443));
#175 = CARTESIAN_POINT('',(-3.465103802357,-1.998263155565,-5.0000006));
#176 = ORIENTED_EDGE('',*,*,#177,.T.);
#177 = EDGE_CURVE('',#153,#178,#180,.T.);
#178 = VERTEX_POINT('',#179);
#179 = CARTESIAN_POINT('',(3.465103814382,-1.998263134714,-5.));
#180 = CIRCLE('',#181,4.);
#181 = AXIS2_PLACEMENT_3D('',#182,#183,#184);
#182 = CARTESIAN_POINT('',(0.,0.,-5.));
#183 = DIRECTION('',(0.,0.,1.));
#184 = DIRECTION('',(1.,0.,-0.));
#185 = ORIENTED_EDGE('',*,*,#186,.F.);
#186 = EDGE_CURVE('',#84,#178,#187,.T.);
#187 = B_SPLINE_CURVE_WITH_KNOTS('',7,(#188,#189,#190,#191,#192,#193,
    #194,#195,#196,#197,#198,#199,#200,#201,#202,#203,#204,#205,#206,
    #207),.UNSPECIFIED.,.F.,.F.,(8,6,6,8),(0.,0.299213165045,
    0.509438594297,1.),.UNSPECIFIED.);
#188 = CARTESIAN_POINT('',(4.,0.,-3.071796769724));
#189 = CARTESIAN_POINT('',(4.,-0.154948829849,-3.071796769724));
#190 = CARTESIAN_POINT('',(3.992997351843,-0.310001737207,-3.08392591626
    ));
#191 = CARTESIAN_POINT('',(3.978974969453,-0.462554300904,
    -3.108212207384));
#192 = CARTESIAN_POINT('',(3.958545604967,-0.61044084313,-3.144135819752
    ));
#193 = CARTESIAN_POINT('',(3.932750545348,-0.751888172215,
    -3.190950980179));
#194 = CARTESIAN_POINT('',(3.902884671537,-0.885506681427,-3.2476992827)
  );
#195 = CARTESIAN_POINT('',(3.847428142579,-1.097955515084,
    -3.359276390592));
#196 = CARTESIAN_POINT('',(3.823189171364,-1.181332327359,
    -3.409693814654));
#197 = CARTESIAN_POINT('',(3.798045309315,-1.260131251772,
    -3.464139679651));
#198 = CARTESIAN_POINT('',(3.772448715962,-1.334173026372,
    -3.522263285919));
#199 = CARTESIAN_POINT('',(3.746827204346,-1.403364317619,
    -3.583719600894));
#200 = CARTESIAN_POINT('',(3.721565846602,-1.467681398312,
    -3.648177326796));
#201 = CARTESIAN_POINT('',(3.639666741389,-1.665945651907,
    -3.872011324886));
#202 = CARTESIAN_POINT('',(3.58616323733,-1.778245069847,-4.043195986433
    ));
#203 = CARTESIAN_POINT('',(3.540638881424,-1.864700210376,
    -4.225012286001));
#204 = CARTESIAN_POINT('',(3.505796082361,-1.927279471376,
    -4.414082645771));
#205 = CARTESIAN_POINT('',(3.48218931948,-1.968601010807,-4.607573419482
    ));
#206 = CARTESIAN_POINT('',(3.469045403516,-1.99142819135,-4.803323373219
    ));
#207 = CARTESIAN_POINT('',(3.465103802357,-1.998263155565,-5.0000006));
#208 = CYLINDRICAL_SURFACE('',#209,4.);
#209 = AXIS2_PLACEMENT_3D('',#210,#211,#212);
#210 = CARTESIAN_POINT('',(0.,0.,-5.));
#211 = DIRECTION('',(0.,0.,1.));
#212 = DIRECTION('',(1.,0.,-0.));
#213 = ADVANCED_FACE('',(#214),#344,.T.);
#214 = FACE_BOUND('',#215,.T.);
#215 = EDGE_LOOP('',(#216,#217,#224,#225,#253,#262,#288,#289,#290,#291,
    #317,#318));
#216 = ORIENTED_EDGE('',*,*,#93,.F.);
#217 = ORIENTED_EDGE('',*,*,#218,.T.);
#218 = EDGE_CURVE('',#84,#128,#219,.T.);
#219 = CIRCLE('',#220,8.);
#220 = AXIS2_PLACEMENT_3D('',#221,#222,#223);
#221 = CARTESIAN_POINT('',(0.,-4.898587196589E-16,-10.));
#222 = DIRECTION('',(0.,1.,0.));
#223 = DIRECTION('',(0.,-0.,1.));
#224 = ORIENTED_EDGE('',*,*,#127,.T.);
#225 = ORIENTED_EDGE('',*,*,#226,.T.);
#226 = EDGE_CURVE('',#119,#227,#229,.T.);
#227 = VERTEX_POINT('',#228);
#228 = CARTESIAN_POINT('',(-1.224646799147E-15,1.732050807569,-5.));
#229 = B_SPLINE_CURVE_WITH_KNOTS('',8,(#230,#231,#232,#233,#234,#235,
    #236,#237,#238,#239,#240,#241,#242,#243,#244,#245,#246,#247,#248,
    #249,#250,#251,#252),.UNSPECIFIED.,.F.,.F.,(9,7,7,9),(0.,
    0.485318039186,0.616165017574,1.),.UNSPECIFIED.);
#230 = CARTESIAN_POINT('',(-4.8,1.770048746669,-5.));
#231 = CARTESIAN_POINT('',(-4.53207954566,1.867649182158,-5.));
#232 = CARTESIAN_POINT('',(-4.252879279186,1.937740761606,-5.));
#233 = CARTESIAN_POINT('',(-3.966668014297,1.983315088433,-5.));
#234 = CARTESIAN_POINT('',(-3.6766335652,2.007447893563,-5.));
#235 = CARTESIAN_POINT('',(-3.385022465352,2.013559256078,-5.));
#236 = CARTESIAN_POINT('',(-3.093099659654,2.005118245403,-5.));
#237 = CARTESIAN_POINT('',(-2.801175432208,1.98556211375,-5.));
#238 = CARTESIAN_POINT('',(-2.429658635712,1.951022843046,-5.));
#239 = CARTESIAN_POINT('',(-2.350745996767,1.943135237091,-5.));
#240 = CARTESIAN_POINT('',(-2.271812713969,1.934764480283,-5.));
#241 = CARTESIAN_POINT('',(-2.192855149714,1.925981227471,-5.));
#242 = CARTESIAN_POINT('',(-2.113868240378,1.916856990489,-5.));
#243 = CARTESIAN_POINT('',(-2.034845496312,1.907464138157,-5.));
#244 = CARTESIAN_POINT('',(-1.955779001849,1.897875896282,-5.));
#245 = CARTESIAN_POINT('',(-1.644564906982,1.859683730243,-5.));
#246 = CARTESIAN_POINT('',(-1.411993983314,1.830154285629,-5.));
#247 = CARTESIAN_POINT('',(-1.178683515763,1.801440211198,-5.));
#248 = CARTESIAN_POINT('',(-0.944472623478,1.775475991161,-5.));
#249 = CARTESIAN_POINT('',(-0.709308612854,1.75421772939,-5.));
#250 = CARTESIAN_POINT('',(-0.473265536803,1.73944110033,-5.));
#251 = CARTESIAN_POINT('',(-0.236643833982,1.732050807569,-5.));
#252 = CARTESIAN_POINT('',(0.,1.732050807569,-5.));
#253 = ORIENTED_EDGE('',*,*,#254,.T.);
#254 = EDGE_CURVE('',#227,#255,#257,.T.);
#255 = VERTEX_POINT('',#256);
#256 = CARTESIAN_POINT('',(-1.224646799147E-15,-1.732050807569,-5.));
#257 = CIRCLE('',#258,2.);
#258 = AXIS2_PLACEMENT_3D('',#259,#260,#261);
#259 = CARTESIAN_POINT('',(-1.469576158977E-15,0.,-4.));
#260 = DIRECTION('',(-1.,0.,-2.449293598295E-16));
#261 = DIRECTION('',(-2.449293598295E-16,0.,1.));
#262 = ORIENTED_EDGE('',*,*,#263,.T.);
#263 = EDGE_CURVE('',#255,#153,#264,.T.);
#264 = B_SPLINE_CURVE_WITH_KNOTS('',8,(#265,#266,#267,#268,#269,#270,
    #271,#272,#273,#274,#275,#276,#277,#278,#279,#280,#281,#282,#283,
    #284,#285,#286,#287),.UNSPECIFIED.,.F.,.F.,(9,7,7,9),(0.,
    0.385437212752,0.861213844097,1.),.UNSPECIFIED.);
#265 = CARTESIAN_POINT('',(0.,-1.732050807569,-5.));
#266 = CARTESIAN_POINT('',(-0.237633355493,-1.732050807569,-5.));
#267 = CARTESIAN_POINT('',(-0.475242768715,-1.73950303517,-5.));
#268 = CARTESIAN_POINT('',(-0.712265797827,-1.754403299145,-5.));
#269 = CARTESIAN_POINT('',(-0.948400095579,-1.775831715599,-5.));
#270 = CARTESIAN_POINT('',(-1.183572838187,-1.801983046332,-5.));
#271 = CARTESIAN_POINT('',(-1.417839189669,-1.830874409736,-5.));
#272 = CARTESIAN_POINT('',(-1.651363741089,-1.860547307132,-5.));
#273 = CARTESIAN_POINT('',(-2.172088298274,-1.924384183586,-5.));
#274 = CARTESIAN_POINT('',(-2.458680645152,-1.957926608694,-5.));
#275 = CARTESIAN_POINT('',(-2.745156813394,-1.986264574435,-5.));
#276 = CARTESIAN_POINT('',(-3.031851829581,-2.006004002425,-5.));
#277 = CARTESIAN_POINT('',(-3.318485999141,-2.01387630793,-5.));
#278 = CARTESIAN_POINT('',(-3.604167296437,-2.006646431246,-5.));
#279 = CARTESIAN_POINT('',(-3.887394323008,-1.981224943741,-5.));
#280 = CARTESIAN_POINT('',(-4.247278279182,-1.920711659624,-5.));
#281 = CARTESIAN_POINT('',(-4.328127485773,-1.905227903486,-5.));
#282 = CARTESIAN_POINT('',(-4.408488763511,-1.88785010666,-5.));
#283 = CARTESIAN_POINT('',(-4.488287027858,-1.868503912777,-5.));
#284 = CARTESIAN_POINT('',(-4.567437144352,-1.847117359373,-5.));
#285 = CARTESIAN_POINT('',(-4.645844094645,-1.823621683637,-5.));
#286 = CARTESIAN_POINT('',(-4.723403142534,-1.797952128156,-5.));
#287 = CARTESIAN_POINT('',(-4.8,-1.770048746669,-5.));
#288 = ORIENTED_EDGE('',*,*,#152,.F.);
#289 = ORIENTED_EDGE('',*,*,#218,.F.);
#290 = ORIENTED_EDGE('',*,*,#186,.T.);
#291 = ORIENTED_EDGE('',*,*,#292,.T.);
#292 = EDGE_CURVE('',#178,#255,#293,.T.);
#293 = B_SPLINE_CURVE_WITH_KNOTS('',8,(#294,#295,#296,#297,#298,#299,
    #300,#301,#302,#303,#304,#305,#306,#307,#308,#309,#310,#311,#312,
    #313,#314,#315,#316),.UNSPECIFIED.,.F.,.F.,(9,7,7,9),(0.,
    0.485318039187,0.616165017575,1.),.UNSPECIFIED.);
#294 = CARTESIAN_POINT('',(4.8,-1.770048746669,-5.));
#295 = CARTESIAN_POINT('',(4.532079545659,-1.867649182158,-5.));
#296 = CARTESIAN_POINT('',(4.25287927919,-1.937740761605,-5.));
#297 = CARTESIAN_POINT('',(3.966668014291,-1.983315088434,-5.));
#298 = CARTESIAN_POINT('',(3.676633565209,-2.007447893562,-5.));
#299 = CARTESIAN_POINT('',(3.385022465347,-2.013559256078,-5.));
#300 = CARTESIAN_POINT('',(3.093099659658,-2.005118245403,-5.));
#301 = CARTESIAN_POINT('',(2.801175432209,-1.98556211375,-5.));
#302 = CARTESIAN_POINT('',(2.429658635713,-1.951022843046,-5.));
#303 = CARTESIAN_POINT('',(2.350745996768,-1.943135237091,-5.));
#304 = CARTESIAN_POINT('',(2.27181271397,-1.934764480283,-5.));
#305 = CARTESIAN_POINT('',(2.192855149715,-1.925981227471,-5.));
#306 = CARTESIAN_POINT('',(2.113868240379,-1.916856990489,-5.));
#307 = CARTESIAN_POINT('',(2.034845496313,-1.907464138157,-5.));
#308 = CARTESIAN_POINT('',(1.95577900185,-1.897875896282,-5.));
#309 = CARTESIAN_POINT('',(1.644564906985,-1.859683730244,-5.));
#310 = CARTESIAN_POINT('',(1.411993983306,-1.830154285629,-5.));
#311 = CARTESIAN_POINT('',(1.178683515783,-1.801440211199,-5.));
#312 = CARTESIAN_POINT('',(0.944472623455,-1.77547599116,-5.));
#313 = CARTESIAN_POINT('',(0.709308612873,-1.754217729391,-5.));
#314 = CARTESIAN_POINT('',(0.473265536795,-1.73944110033,-5.));
#315 = CARTESIAN_POINT('',(0.236643833983,-1.732050807569,-5.));
#316 = CARTESIAN_POINT('',(0.,-1.732050807569,-5.));
#317 = ORIENTED_EDGE('',*,*,#254,.F.);
#318 = ORIENTED_EDGE('',*,*,#319,.F.);
#319 = EDGE_CURVE('',#94,#227,#320,.T.);
#320 = B_SPLINE_CURVE_WITH_KNOTS('',8,(#321,#322,#323,#324,#325,#326,
    #327,#328,#329,#330,#331,#332,#333,#334,#335,#336,#337,#338,#339,
    #340,#341,#342,#343),.UNSPECIFIED.,.F.,.F.,(9,7,7,9),(0.,
    0.485318039187,0.616165017575,1.),.UNSPECIFIED.);
#321 = CARTESIAN_POINT('',(4.8,1.770048746669,-5.));
#322 = CARTESIAN_POINT('',(4.53207954566,1.867649182158,-5.));
#323 = CARTESIAN_POINT('',(4.252879279185,1.937740761607,-5.));
#324 = CARTESIAN_POINT('',(3.966668014297,1.983315088432,-5.));
#325 = CARTESIAN_POINT('',(3.676633565201,2.007447893564,-5.));
#326 = CARTESIAN_POINT('',(3.385022465348,2.013559256077,-5.));
#327 = CARTESIAN_POINT('',(3.093099659655,2.005118245404,-5.));
#328 = CARTESIAN_POINT('',(2.801175432206,1.98556211375,-5.));
#329 = CARTESIAN_POINT('',(2.42965863571,1.951022843046,-5.));
#330 = CARTESIAN_POINT('',(2.350745996765,1.943135237091,-5.));
#331 = CARTESIAN_POINT('',(2.271812713967,1.934764480283,-5.));
#332 = CARTESIAN_POINT('',(2.192855149712,1.925981227471,-5.));
#333 = CARTESIAN_POINT('',(2.113868240376,1.916856990488,-5.));
#334 = CARTESIAN_POINT('',(2.03484549631,1.907464138156,-5.));
#335 = CARTESIAN_POINT('',(1.955779001847,1.897875896282,-5.));
#336 = CARTESIAN_POINT('',(1.644564906982,1.859683730243,-5.));
#337 = CARTESIAN_POINT('',(1.411993983305,1.830154285628,-5.));
#338 = CARTESIAN_POINT('',(1.178683515778,1.801440211199,-5.));
#339 = CARTESIAN_POINT('',(0.944472623457,1.77547599116,-5.));
#340 = CARTESIAN_POINT('',(0.709308612869,1.754217729391,-5.));
#341 = CARTESIAN_POINT('',(0.473265536795,1.73944110033,-5.));
#342 = CARTESIAN_POINT('',(0.236643833983,1.732050807569,-5.));
#343 = CARTESIAN_POINT('',(0.,1.732050807569,-5.));
#344 = TOROIDAL_SURFACE('',#345,6.,2.);
#345 = AXIS2_PLACEMENT_3D('',#346,#347,#348);
#346 = CARTESIAN_POINT('',(0.,0.,-10.));
#347 = DIRECTION('',(0.,1.,0.));
#348 = DIRECTION('',(0.,-0.,1.));
#349 = ADVANCED_FACE('',(#350),#355,.F.);
#350 = FACE_BOUND('',#351,.F.);
#351 = EDGE_LOOP('',(#352,#353,#354));
#352 = ORIENTED_EDGE('',*,*,#177,.T.);
#353 = ORIENTED_EDGE('',*,*,#292,.T.);
#354 = ORIENTED_EDGE('',*,*,#263,.T.);
#355 = PLANE('',#356);
#356 = AXIS2_PLACEMENT_3D('',#357,#358,#359);
#357 = CARTESIAN_POINT('',(0.,0.,-5.));
#358 = DIRECTION('',(0.,0.,1.));
#359 = DIRECTION('',(1.,0.,-0.));
#360 = ADVANCED_FACE('',(#361),#366,.F.);
#361 = FACE_BOUND('',#362,.F.);
#362 = EDGE_LOOP('',(#363,#364,#365));
#363 = ORIENTED_EDGE('',*,*,#319,.F.);
#364 = ORIENTED_EDGE('',*,*,#118,.T.);
#365 = ORIENTED_EDGE('',*,*,#226,.T.);
#366 = PLANE('',#367);
#367 = AXIS2_PLACEMENT_3D('',#368,#369,#370);
#368 = CARTESIAN_POINT('',(0.,0.,-5.));
#369 = DIRECTION('',(0.,0.,1.));
#370 = DIRECTION('',(1.,0.,-0.));
#371 = ( GEOMETRIC_REPRESENTATION_CONTEXT(3) 
GLOBAL_UNCERTAINTY_ASSIGNED_CONTEXT((#375)) GLOBAL_UNIT_ASSIGNED_CONTEXT
((#372,#373,#374)) REPRESENTATION_CONTEXT('Context #1',
  '3D Context with UNIT and UNCERTAINTY') );
#372 = ( LENGTH_UNIT() NAMED_UNIT(*) SI_UNIT(.MILLI.,.METRE.) );
#373 = ( NAMED_UNIT(*) PLANE_ANGLE_UNIT() SI_UNIT($,.RADIAN.) );
#374 = ( NAMED_UNIT(*) SI_UNIT($,.STERADIAN.) SOLID_ANGLE_UNIT() );
#375 = UNCERTAINTY_MEASURE_WITH_UNIT(LENGTH_MEASURE(5.E-07),#372,
  'distance_accuracy_value','confusion accuracy');
#376 = PRODUCT_RELATED_PRODUCT_CATEGORY('part',$,(#7));
ENDSEC;
END-ISO-10303-21;
